<?xml version="1.0" encoding="UTF-8" standalone="no"?>
<!DOCTYPE svg PUBLIC "-//W3C//DTD SVG 1.1//EN" "http://www.w3.org/Graphics/SVG/1.1/DTD/svg11.dtd">
<svg width="100%" height="100%" viewBox="0 0 2223 716" version="1.1" xmlns="http://www.w3.org/2000/svg" xmlns:xlink="http://www.w3.org/1999/xlink" xml:space="preserve" xmlns:serif="http://www.serif.com/" style="fill-rule:evenodd;clip-rule:evenodd;stroke-miterlimit:10;">
    <g transform="matrix(1,0,0,1,-154.231,-990.267)">
        <g transform="matrix(4.16667,0,0,4.16667,0,0)">
            <g transform="matrix(1,0,0,1,108.318,308.069)">
                <path d="M0,-43.889L5.292,-47.81L8.004,-43.629L14.757,-47.81L16.259,-43.889L4.684,-36.773L0,-43.889ZM-19.256,3.921C-19.256,3.921 -19.936,3.371 -21.292,2.272C-22.644,1.172 -23.289,-0.43 -23.226,-2.533C-23.161,-4.637 -22.376,-7.177 -20.876,-10.155L-15.67,-20.516C-14.178,-23.494 -12.421,-26.035 -10.403,-28.139C-8.391,-30.242 -6.196,-31.848 -3.818,-32.956C-1.445,-34.064 1.024,-34.618 3.592,-34.618C5.711,-34.618 7.361,-34.107 8.544,-33.086C9.73,-32.064 10.409,-30.58 10.579,-28.632C10.754,-26.684 10.402,-24.334 9.522,-21.581L2.833,-21.581C3.182,-22.828 3.306,-23.892 3.208,-24.776C3.109,-25.659 2.803,-26.334 2.287,-26.801C1.772,-27.269 1.055,-27.502 0.135,-27.502C-1.066,-27.502 -2.221,-27.23 -3.331,-26.684C-4.441,-26.139 -5.478,-25.343 -6.439,-24.295C-7.402,-23.247 -8.247,-21.988 -8.974,-20.516L-14.102,-10.155C-14.832,-8.683 -15.227,-7.428 -15.287,-6.389C-15.347,-5.35 -15.079,-4.558 -14.484,-4.013C-13.889,-3.468 -12.973,-3.195 -11.739,-3.195C-10.777,-3.195 -9.8,-3.424 -8.807,-3.883C-7.816,-4.342 -6.841,-5.013 -5.885,-5.896C-4.93,-6.779 -4.027,-7.852 -3.177,-9.116L3.605,-9.116C1.848,-6.364 -0.062,-4.013 -2.124,-2.065C-4.191,-0.118 -6.34,1.367 -8.566,2.388C-10.798,3.41 -13.021,3.921 -15.234,3.921L-19.256,3.921Z" style="fill:rgb(227,32,70);fill-rule:nonzero;"/>
            </g>
            <g transform="matrix(1,0,0,1,117.554,280.697)">
                <path d="M0,24.047L21.032,24.047L17.984,30.903L-3.208,30.903L0,24.047ZM7.142,8.725L25.217,8.725L22.166,15.581L3.95,15.581L7.142,8.725ZM14.366,-6.856L34.682,-6.856L31.666,0L11.192,0L14.366,-6.856ZM12.068,-6.856L18.429,-6.856L1.031,30.903L-5.605,30.903L12.068,-6.856Z" style="fill:rgb(227,32,70);fill-rule:nonzero;"/>
            </g>
            <g transform="matrix(1,0,0,1,149.976,273.45)">
                <path d="M0,38.539C0,38.539 -0.726,38.357 -2.175,37.994C-3.624,37.63 -4.901,37.098 -6.007,36.396C-7.11,35.695 -7.999,34.851 -8.675,33.864L-3.053,27.996C-2.231,29.19 -1.08,30.112 0.401,30.761C1.884,31.41 3.556,31.735 5.416,31.735C7.564,31.735 9.397,31.341 10.914,30.553C12.428,29.766 13.484,28.654 14.083,27.216L14.094,27.19C14.513,26.186 14.582,25.39 14.303,24.801C14.023,24.213 13.521,23.78 12.795,23.503C12.07,23.226 11.096,22.975 9.874,22.749C9.833,22.732 9.793,22.724 9.754,22.724C9.714,22.724 9.674,22.715 9.634,22.698L9.143,22.62C6.996,22.222 5.29,21.724 4.025,21.126C2.762,20.529 1.925,19.482 1.516,17.984C1.11,16.487 1.508,14.361 2.706,11.609L2.717,11.583C3.779,9.142 5.176,7.056 6.908,5.324C8.635,3.593 10.624,2.273 12.873,1.364C15.118,0.455 17.555,0 20.185,0C21.392,0 22.561,0.156 23.693,0.468C24.825,0.78 25.875,1.23 26.841,1.818C27.809,2.407 28.667,3.117 29.416,3.948L24.236,9.973C23.335,8.969 22.287,8.19 21.088,7.636C19.892,7.081 18.639,6.805 17.329,6.805C15.365,6.805 13.692,7.164 12.311,7.882C10.927,8.601 9.957,9.609 9.401,10.908L9.39,10.934C8.924,12.024 8.837,12.886 9.133,13.518C9.429,14.15 9.931,14.613 10.64,14.907C11.349,15.202 12.39,15.513 13.762,15.842C13.818,15.859 13.875,15.872 13.935,15.881C13.994,15.89 14.052,15.903 14.107,15.92C14.195,15.937 14.276,15.958 14.352,15.985C14.427,16.011 14.509,16.033 14.597,16.049C16.575,16.517 18.156,17.084 19.339,17.75C20.523,18.417 21.302,19.491 21.675,20.971C22.051,22.451 21.715,24.473 20.666,27.035L20.645,27.086C19.658,29.493 18.292,31.553 16.544,33.267C14.791,34.981 12.724,36.289 10.341,37.188C7.955,38.089 5.347,38.539 2.52,38.539L0,38.539Z" style="fill:rgb(227,32,70);fill-rule:nonzero;"/>
            </g>
            <g transform="matrix(1,0,0,1,189.493,292.953)">
                <path d="M0,-0.467L7.084,-4.337L10.59,18.646L2.719,18.646L0,-0.467ZM-7.475,3.896L15.192,-19.113L23.202,-19.113L-10.319,13.141L-7.475,3.896ZM-2.174,-19.113L4.187,-19.113L-10.723,18.646L-17.358,18.646L-2.174,-19.113Z" style="fill:rgb(227,32,70);fill-rule:nonzero;"/>
            </g>
            <g transform="matrix(1,0,0,1,229.002,305.237)">
                <path d="M0,-38.097L8.567,-44.459L11.069,-39.603L2.227,-33.734L0,-38.097ZM-17.254,-6.544L1.009,-6.544L-1.353,0.312L-19.756,0.312L-17.254,-6.544ZM-1.519,-31.397L2.522,-31.397L2.71,6.362L-4.433,6.362L-3.718,-19.425L-21.291,6.362L-28.435,6.362L-1.519,-31.397Z" style="fill:rgb(227,32,70);fill-rule:nonzero;"/>
            </g>
            <g transform="matrix(1,0,0,1,246.491,326.118)">
                <path d="M0,24.047L8.411,24.047C10.58,24.047 12.523,23.485 14.242,22.359C15.958,21.234 17.298,19.641 18.265,17.581L23.481,6.466C24.448,4.406 24.61,2.813 23.97,1.688C23.332,0.562 21.949,0 19.819,0L11.559,0L14.854,-6.856L22.93,-6.856C25.786,-6.856 27.974,-6.328 29.498,-5.272C31.023,-4.216 31.842,-2.675 31.954,-0.65C32.069,1.376 31.466,3.817 30.14,6.673L25.173,17.373C23.912,20.091 22.292,22.463 20.315,24.488C18.335,26.514 16.041,28.089 13.435,29.214C10.825,30.34 8.008,30.903 4.989,30.903L-3.295,30.903L0,24.047ZM11.605,-6.856L18.056,-6.856L-0.001,30.903L-6.638,30.903L11.605,-6.856Z" style="fill:rgb(227,32,70);fill-rule:nonzero;"/>
            </g>
            <g transform="matrix(1,0,0,1,291.07,326.807)">
                <path d="M0,22.671C1.143,22.126 2.182,21.351 3.12,20.347C4.056,19.343 4.818,18.183 5.404,16.867L10.333,5.804C10.919,4.488 11.194,3.328 11.16,2.324C11.125,1.32 10.789,0.545 10.149,-0C9.508,-0.546 8.605,-0.818 7.438,-0.818C6.271,-0.818 5.122,-0.546 3.992,-0C2.86,0.545 1.826,1.32 0.889,2.324C-0.05,3.328 -0.818,4.488 -1.417,5.804L-6.444,16.867C-7.042,18.183 -7.325,19.343 -7.292,20.347C-7.258,21.351 -6.916,22.126 -6.263,22.671C-5.61,23.216 -4.689,23.489 -3.5,23.489C-2.311,23.489 -1.145,23.216 0,22.671M-12.664,28.877C-14.083,27.726 -14.841,26.099 -14.939,23.995C-15.035,21.892 -14.445,19.455 -13.172,16.685L-8.255,5.985C-6.982,3.216 -5.341,0.779 -3.334,-1.325C-1.331,-3.428 0.88,-5.056 3.299,-6.207C5.714,-7.358 8.161,-7.934 10.64,-7.934C13.12,-7.934 15.047,-7.358 16.426,-6.207C17.809,-5.056 18.556,-3.428 18.666,-1.325C18.78,0.779 18.227,3.216 17.007,5.985L12.295,16.685C11.075,19.455 9.472,21.892 7.483,23.995C5.493,26.099 3.269,27.726 0.814,28.877C-1.643,30.028 -4.149,30.605 -6.702,30.605C-9.254,30.605 -11.243,30.028 -12.664,28.877" style="fill:rgb(227,32,70);fill-rule:nonzero;"/>
            </g>
            <g transform="matrix(1,0,0,1,316.769,340.764)">
                <path d="M0,-5.245L11.084,-5.245C11.862,-5.245 12.632,-5.44 13.394,-5.829C14.153,-6.219 14.851,-6.768 15.482,-7.478C16.115,-8.188 16.625,-9.002 17.012,-9.92C17.406,-10.854 17.592,-11.681 17.571,-12.4C17.551,-13.118 17.327,-13.672 16.899,-14.062C16.473,-14.451 15.864,-14.646 15.075,-14.646L4.07,-14.646L7.039,-21.502L17.823,-21.502C19.957,-21.502 21.634,-21.021 22.855,-20.06C24.079,-19.099 24.773,-17.745 24.941,-15.996C25.11,-14.247 24.716,-12.222 23.757,-9.92C22.798,-7.617 21.504,-5.596 19.871,-3.856C18.236,-2.116 16.395,-0.769 14.344,0.182C12.291,1.135 10.177,1.611 8.005,1.611L-2.969,1.611L0,-5.245ZM4.097,-21.502L10.547,-21.502L-5.701,16.257L-12.338,16.257L4.097,-21.502Z" style="fill:rgb(227,32,70);fill-rule:nonzero;"/>
            </g>
            <g transform="matrix(1,0,0,1,351.99,335.598)">
                <path d="M0,5.063L7.488,3.869L9.969,21.424L1.927,21.424L0,5.063ZM-4.988,-0.624L7.068,-0.624C7.735,-0.624 8.396,-0.806 9.05,-1.169C9.703,-1.533 10.303,-2.052 10.851,-2.728C11.396,-3.403 11.854,-4.182 12.223,-5.065C12.574,-5.948 12.747,-6.727 12.739,-7.402C12.732,-8.077 12.549,-8.597 12.189,-8.96C11.829,-9.324 11.311,-9.505 10.633,-9.505L-1.344,-9.505L1.47,-16.361L13.902,-16.361C15.784,-16.361 17.254,-15.894 18.312,-14.959C19.372,-14.024 19.959,-12.704 20.073,-10.999C20.189,-9.293 19.806,-7.315 18.919,-5.065C18.033,-2.814 16.857,-0.836 15.39,0.869C13.921,2.575 12.272,3.895 10.441,4.83C8.61,5.764 6.744,6.232 4.845,6.232L-7.802,6.232L-4.988,-0.624ZM-1.096,-16.361L5.354,-16.361L-10.039,21.424L-16.676,21.424L-1.096,-16.361Z" style="fill:rgb(227,32,70);fill-rule:nonzero;"/>
            </g>
            <g transform="matrix(1,0,0,1,374.751,332.169)">
                <path d="M0,11.946L18.353,11.946L15.795,18.802L-2.651,18.802L0,11.946ZM16.417,-12.907L20.514,-12.907L19.69,24.853L12.545,24.853L13.916,-0.935L-4.313,24.853L-11.46,24.853L16.417,-12.907Z" style="fill:rgb(227,32,70);fill-rule:nonzero;"/>
            </g>
            <g transform="matrix(1,0,0,1,406.472,357.021)">
                <path d="M0,-37.759L6.64,-37.759L4.864,-12.569L21.19,-37.759L27.83,-37.759L2.939,0L-2.244,0L0,-37.759Z" style="fill:rgb(227,32,70);fill-rule:nonzero;"/>
            </g>
            <g transform="matrix(1,0,0,1,430.602,332.169)">
                <path d="M0,11.946L18.353,11.946L16.082,18.802L-2.365,18.802L0,11.946ZM15.378,-12.907L19.475,-12.907L20.229,24.853L13.084,24.853L13.377,-0.935L-3.774,24.853L-10.92,24.853L15.378,-12.907Z" style="fill:rgb(227,32,70);fill-rule:nonzero;"/>
            </g>
            <g transform="matrix(1,0,0,1,455.928,357.022)">
                <path d="M0,-7.116L6.602,-7.116L4.327,0L-2.31,0L0,-7.116Z" style="fill:rgb(227,32,70);fill-rule:nonzero;"/>
            </g>
            <g transform="matrix(1,0,0,1,472.851,318.872)">
                <path d="M0,38.539C0,38.539 -0.782,37.989 -2.343,36.89C-3.902,35.79 -4.849,34.188 -5.183,32.085C-5.515,29.982 -5.208,27.441 -4.265,24.463L-0.982,14.102C-0.04,11.124 1.255,8.583 2.898,6.48C4.538,4.376 6.459,2.77 8.661,1.663C10.858,0.555 13.26,0 15.864,0C18.014,0 19.78,0.511 21.167,1.533C22.556,2.555 23.514,4.039 24.039,5.986C24.568,7.934 24.637,10.284 24.244,13.037L17.492,13.037C17.617,11.79 17.548,10.726 17.286,9.843C17.025,8.96 16.592,8.285 15.984,7.817C15.378,7.35 14.608,7.116 13.678,7.116C12.463,7.116 11.346,7.389 10.325,7.934C9.304,8.479 8.403,9.276 7.628,10.323C6.852,11.371 6.232,12.63 5.774,14.102L2.546,24.463C2.087,25.935 1.924,27.19 2.058,28.229C2.19,29.268 2.607,30.06 3.305,30.605C4.004,31.151 4.972,31.423 6.209,31.423C7.174,31.423 8.111,31.194 9.022,30.735C9.933,30.277 10.788,29.605 11.585,28.723C12.382,27.84 13.092,26.766 13.715,25.502L20.53,25.502C19.262,28.255 17.77,30.605 16.054,32.553C14.335,34.5 12.453,35.985 10.41,37.007C8.365,38.028 6.235,38.539 4.022,38.539L0,38.539Z" style="fill:rgb(227,32,70);fill-rule:nonzero;"/>
            </g>
            <g transform="matrix(1,0,0,1,525.316,350.633)">
                <path d="M0,-24.983L-21.224,-0.468L-6.331,-0.468L-8.233,6.388L-31.1,6.388L-29.219,-0.001L-7.846,-24.515L-21.572,-24.515L-19.556,-31.371L1.775,-31.371L0,-24.983Z" style="fill:rgb(227,32,70);fill-rule:nonzero;"/>
            </g>
            <g transform="matrix(0.403277,-0.915078,-0.915078,-0.403277,299.668,360.402)">
                <path d="M-44.304,67.941L104.187,67.941" style="fill:none;fill-rule:nonzero;"/>
            </g>
            <g transform="matrix(0.999996,0.00297188,0.00297188,-0.999996,54.8059,339.796)">
                <path d="M-0,-0.248L166.897,-0.248" style="fill:none;fill-rule:nonzero;stroke:rgb(46,48,146);stroke-width:0.75px;"/>
            </g>
            <g transform="matrix(0.999996,0.00297078,0.00297078,-0.999996,39.5291,351.321)">
                <path d="M-0,-0.261L175.374,-0.261" style="fill:none;fill-rule:nonzero;stroke:rgb(46,48,146);stroke-width:0.5px;"/>
            </g>
            <g transform="matrix(0.999996,0.002969,0.002969,-0.999996,69.6823,326.705)">
                <path d="M-0,-0.243L163.354,-0.243" style="fill:none;fill-rule:nonzero;stroke:rgb(46,48,146);stroke-width:1px;"/>
            </g>
            <g transform="matrix(-0.999996,-0.00296849,-0.00296849,0.999996,272.546,284.555)">
                <path d="M-284.319,0.422L0.001,0.422" style="fill:none;fill-rule:nonzero;stroke:rgb(46,48,146);stroke-width:0.75px;"/>
            </g>
            <g transform="matrix(-0.999996,-0.00296815,-0.00296815,0.999996,283.284,270.031)">
                <path d="M-284.689,0.423L0.001,0.423" style="fill:none;fill-rule:nonzero;stroke:rgb(46,48,146);stroke-width:0.5px;"/>
            </g>
            <g transform="matrix(-0.999996,-0.0029695,-0.0029695,0.999996,263.02,300.921)">
                <path d="M-275.13,0.408L0.001,0.409" style="fill:none;fill-rule:nonzero;stroke:rgb(46,48,146);stroke-width:1px;"/>
            </g>
            <g transform="matrix(-1,0,0,1,40.2602,350.252)">
                <path d="M-176.98,4.667L2.76,4.667L0.345,0L-179.74,0L-176.98,4.667Z" style="fill:rgb(41,41,180);fill-rule:nonzero;"/>
            </g>
            <g transform="matrix(-1,0,0,1,51.3839,337.667)">
                <path d="M-173.497,3.333L2.453,3.333L-0.044,0L-175.95,0L-173.497,3.333Z" style="fill:rgb(41,41,180);fill-rule:nonzero;"/>
            </g>
            <g transform="matrix(-1,0,0,1,63.1314,326.334)">
                <path d="M-171.083,2L1.786,2L0,0L-172.869,0L-171.083,2Z" style="fill:rgb(41,41,180);fill-rule:nonzero;"/>
            </g>
            <g transform="matrix(-1,0,0,1,284.517,267.107)">
                <path d="M-283.466,4.458L2.517,4.458L-0.249,0L-285.983,0L-283.466,4.458Z" style="fill:rgb(41,41,180);fill-rule:nonzero;"/>
            </g>
            <g transform="matrix(-1,0,0,1,272.504,283.917)">
                <path d="M-289.742,3.333L1.754,3.333L0.002,0L-291.496,0L-289.742,3.333Z" style="fill:rgb(41,41,180);fill-rule:nonzero;"/>
            </g>
            <g transform="matrix(-1,6.75199e-06,6.75199e-06,1,263.291,301.002)">
                <path d="M-294.418,1.999L1.791,1.999L0.255,-0.001L-296.209,-0.001L-294.418,1.999Z" style="fill:rgb(41,41,180);fill-rule:nonzero;"/>
            </g>
            <g>
                <path d="M125.366,403.96L136.625,386.436L132.413,386.436L127.888,393.924C126.678,395.926 125.496,398.006 124.41,400.112L124.332,400.112C124.584,397.928 124.642,395.952 124.688,393.846L124.821,386.436L120.479,386.436L120.738,403.96L125.366,403.96Z" style="fill:rgb(41,41,180);fill-rule:nonzero;"/>
                <path d="M144.797,396.446C145.719,393.43 145.156,390.934 140.918,390.934C138.604,390.934 136.663,391.584 135.628,392.078L135.577,394.626C136.568,394.106 138.081,393.664 139.381,393.664C141.331,393.664 141.401,394.626 141.187,395.328L141.139,395.484C136.641,395.484 133.2,397.044 132.19,400.346C131.57,402.374 132.532,404.246 135.106,404.246C136.614,404.246 138.081,403.7 139.223,402.686L139.301,402.686L139.146,403.96L142.708,403.96C142.766,403.258 143.072,402.088 143.437,400.892L144.797,396.446ZM140.092,399.332C140.021,399.566 139.923,399.8 139.808,400.008C139.301,400.814 138.271,401.464 137.309,401.464C136.425,401.464 135.9,400.97 136.21,399.956C136.671,398.448 138.434,397.954 140.514,397.954L140.092,399.332ZM143.218,385.708L139.773,389.66L142.477,389.66L146.858,385.708L143.218,385.708Z" style="fill:rgb(41,41,180);fill-rule:nonzero;"/>
                <path d="M145.108,403.336C145.911,403.856 147.274,404.246 148.938,404.246C152.578,404.246 154.957,402.504 155.688,400.112C156.226,398.266 155.62,397.018 153.456,396.186C152.063,395.64 151.665,395.328 151.855,394.704C152.046,394.08 152.711,393.69 153.673,393.69C154.739,393.69 155.73,394.106 156.207,394.418L157.717,391.688C157.057,391.298 155.868,390.934 154.386,390.934C151.24,390.934 148.663,392.728 147.932,395.12C147.445,396.628 148.022,398.058 150.404,398.942C151.709,399.436 152.003,399.748 151.797,400.424C151.598,401.074 150.985,401.464 149.789,401.464C148.619,401.464 147.262,400.97 146.669,400.528L145.108,403.336ZM155.477,389.66L159.286,385.708L156.686,385.708L154.694,387.97L154.642,387.97L154.008,385.708L151.434,385.708L152.799,389.66L155.477,389.66Z" style="fill:rgb(41,41,180);fill-rule:nonzero;"/>
                <path d="M176.197,385.5L174.099,392.364L174.047,392.364C173.737,391.506 172.716,390.934 171.13,390.934C168.088,390.934 164.647,393.43 163.361,397.72C162.153,401.672 163.784,404.246 166.8,404.246C168.438,404.246 170.221,403.518 171.43,402.114L171.508,402.114L171.1,403.96L174.61,403.96C174.82,403.102 175.229,401.594 175.666,400.164L180.149,385.5L176.197,385.5ZM172.286,398.292C172.191,398.604 172.07,398.916 171.93,399.202C171.354,400.32 170.18,401.1 169.036,401.1C167.398,401.1 166.745,399.748 167.405,397.59C168.017,395.588 169.42,393.976 171.24,393.976C172.462,393.976 173.05,394.86 172.966,395.9C172.946,396.134 172.859,396.42 172.795,396.628L172.286,398.292Z" style="fill:rgb(41,41,180);fill-rule:nonzero;"/>
                <path d="M187.744,390.934C183.636,390.934 180.129,393.56 178.865,397.694C177.609,401.802 179.722,404.246 183.44,404.246C186.846,404.246 190.8,402.114 192.223,397.46C193.399,393.612 191.618,390.934 187.744,390.934ZM186.748,393.768C188.542,393.768 188.681,395.692 188.109,397.564C187.401,399.878 185.971,401.412 184.411,401.412C182.721,401.412 182.311,399.774 182.979,397.59C183.551,395.718 184.876,393.768 186.748,393.768Z" style="fill:rgb(41,41,180);fill-rule:nonzero;"/>
                <path d="M191.106,409.108L195.058,409.108L196.989,402.79L197.041,402.79C197.359,403.622 198.364,404.246 199.898,404.246C202.732,404.246 206.338,402.062 207.753,397.434C208.993,393.378 207.236,390.96 204.454,390.96C202.608,390.96 200.929,391.688 199.588,393.014L199.536,393.014L199.895,391.246L196.463,391.246C196.149,392.442 195.772,393.846 195.263,395.51L191.106,409.108ZM198.833,396.758C198.905,396.524 199.01,396.264 199.126,396.056C199.744,394.886 200.986,394.054 202.104,394.054C203.872,394.054 204.313,395.588 203.693,397.616C203.033,399.774 201.582,401.204 199.866,401.204C198.722,401.204 198.059,400.398 198.124,399.332C198.152,399.072 198.205,398.812 198.301,398.5L198.833,396.758Z" style="fill:rgb(41,41,180);fill-rule:nonzero;"/>
                <path d="M208.228,403.96L212.18,403.96L214.151,397.512C214.246,397.2 214.368,396.888 214.499,396.628C215.133,395.406 216.359,394.626 217.815,394.626C218.257,394.626 218.553,394.678 218.849,394.73L219.986,391.012C219.716,390.96 219.542,390.934 219.178,390.934C217.93,390.934 216.157,391.714 214.935,393.586L214.831,393.586L215.391,391.246L212.011,391.246C211.755,392.338 211.407,393.56 210.835,395.432L208.228,403.96Z" style="fill:rgb(41,41,180);fill-rule:nonzero;"/>
                <path d="M230.701,396.446C231.623,393.43 231.06,390.934 226.822,390.934C224.508,390.934 222.567,391.584 221.532,392.078L221.481,394.626C222.472,394.106 223.985,393.664 225.285,393.664C227.235,393.664 227.305,394.626 227.091,395.328L227.043,395.484C222.545,395.484 219.104,397.044 218.094,400.346C217.474,402.374 218.436,404.246 221.01,404.246C222.518,404.246 223.985,403.7 225.127,402.686L225.205,402.686L225.05,403.96L228.612,403.96C228.67,403.258 228.976,402.088 229.341,400.892L230.701,396.446ZM225.996,399.332C225.925,399.566 225.827,399.8 225.712,400.008C225.205,400.814 224.175,401.464 223.213,401.464C222.329,401.464 221.804,400.97 222.114,399.956C222.575,398.448 224.338,397.954 226.418,397.954L225.996,399.332Z" style="fill:rgb(41,41,180);fill-rule:nonzero;"/>
                <path d="M233.773,391.246L234.514,403.96L238.466,403.96L247.085,391.246L242.925,391.246L239.482,397.148C238.862,398.24 238.36,399.202 237.834,400.242L237.756,400.242C237.858,399.228 237.952,398.24 237.974,397.148L238.063,391.246L233.773,391.246Z" style="fill:rgb(41,41,180);fill-rule:nonzero;"/>
                <path d="M254.695,400.71C254.018,400.97 253.242,401.126 252.306,401.126C250.382,401.126 249.203,399.878 249.911,397.564C250.521,395.484 252.326,394.002 254.406,394.002C255.446,394.002 256.092,394.184 256.497,394.392L258.019,391.454C257.282,391.142 256.194,390.96 255.154,390.96C250.422,390.96 246.944,394.002 245.807,397.72C244.591,401.698 246.446,404.22 250.554,404.22C252.062,404.22 253.468,403.96 254.273,403.622L254.695,400.71Z" style="fill:rgb(41,41,180);fill-rule:nonzero;"/>
                <path d="M268.858,398.864C268.997,398.578 269.258,397.98 269.464,397.304C270.426,394.158 269.844,390.96 265.736,390.96C261.316,390.96 258.225,394.522 257.239,397.746C256.023,401.724 257.73,404.22 262.046,404.22C263.762,404.22 265.428,403.96 266.894,403.414L267.193,400.736C266.016,401.1 264.868,401.282 263.516,401.282C261.67,401.282 260.271,400.502 260.668,398.864L268.858,398.864ZM261.468,396.16C261.89,395.12 263.035,393.586 264.699,393.586C266.519,393.586 266.442,395.198 266.148,396.16L261.468,396.16Z" style="fill:rgb(41,41,180);fill-rule:nonzero;"/>
                <path d="M287.927,396.446C288.849,393.43 288.286,390.934 284.048,390.934C281.734,390.934 279.793,391.584 278.758,392.078L278.707,394.626C279.698,394.106 281.211,393.664 282.511,393.664C284.461,393.664 284.531,394.626 284.317,395.328L284.269,395.484C279.771,395.484 276.33,397.044 275.32,400.346C274.7,402.374 275.662,404.246 278.236,404.246C279.744,404.246 281.211,403.7 282.353,402.686L282.431,402.686L282.276,403.96L285.838,403.96C285.896,403.258 286.202,402.088 286.567,400.892L287.927,396.446ZM283.222,399.332C283.151,399.566 283.053,399.8 282.938,400.008C282.431,400.814 281.401,401.464 280.439,401.464C279.555,401.464 279.03,400.97 279.34,399.956C279.801,398.448 281.564,397.954 283.644,397.954L283.222,399.332Z" style="fill:rgb(41,41,180);fill-rule:nonzero;"/>
                <path d="M304.095,400.71C303.418,400.97 302.642,401.126 301.706,401.126C299.782,401.126 298.603,399.878 299.311,397.564C299.921,395.484 301.726,394.002 303.806,394.002C304.846,394.002 305.492,394.184 305.897,394.392L307.419,391.454C306.682,391.142 305.594,390.96 304.554,390.96C299.822,390.96 296.344,394.002 295.207,397.72C293.991,401.698 295.846,404.22 299.954,404.22C301.462,404.22 302.868,403.96 303.673,403.622L304.095,400.71Z" style="fill:rgb(41,41,180);fill-rule:nonzero;"/>
                <path d="M318.258,398.864C318.397,398.578 318.658,397.98 318.864,397.304C319.826,394.158 319.244,390.96 315.136,390.96C310.716,390.96 307.625,394.522 306.639,397.746C305.423,401.724 307.13,404.22 311.446,404.22C313.162,404.22 314.828,403.96 316.294,403.414L316.593,400.736C315.416,401.1 314.268,401.282 312.916,401.282C311.07,401.282 309.671,400.502 310.068,398.864L318.258,398.864ZM310.868,396.16C311.29,395.12 312.435,393.586 314.099,393.586C315.919,393.586 315.842,395.198 315.548,396.16L310.868,396.16Z" style="fill:rgb(41,41,180);fill-rule:nonzero;"/>
                <path d="M318.658,403.336C319.461,403.856 320.824,404.246 322.488,404.246C326.128,404.246 328.507,402.504 329.238,400.112C329.776,398.266 329.17,397.018 327.006,396.186C325.613,395.64 325.215,395.328 325.405,394.704C325.596,394.08 326.261,393.69 327.223,393.69C328.289,393.69 329.28,394.106 329.757,394.418L331.267,391.688C330.607,391.298 329.418,390.934 327.936,390.934C324.79,390.934 322.213,392.728 321.482,395.12C320.995,396.628 321.572,398.058 323.954,398.942C325.259,399.436 325.553,399.748 325.347,400.424C325.148,401.074 324.535,401.464 323.339,401.464C322.169,401.464 320.812,400.97 320.219,400.528L318.658,403.336Z" style="fill:rgb(41,41,180);fill-rule:nonzero;"/>
                <path d="M335.636,388.88L334.913,391.246L333.223,391.246L332.332,394.158L334.022,394.158L332.432,399.358C331.884,401.152 331.874,402.374 332.372,403.128C332.823,403.778 333.754,404.22 335.028,404.22C336.12,404.22 337.13,404.064 337.679,403.882L338.567,400.892C338.18,400.97 337.912,400.996 337.366,400.996C336.196,400.996 336.02,400.294 336.489,398.76L337.896,394.158L340.73,394.158L341.621,391.246L338.787,391.246L339.836,387.814L335.636,388.88Z" style="fill:rgb(41,41,180);fill-rule:nonzero;"/>
                <path d="M349.958,390.934C345.85,390.934 342.343,393.56 341.079,397.694C339.823,401.802 341.936,404.246 345.654,404.246C349.06,404.246 353.014,402.114 354.437,397.46C355.613,393.612 353.832,390.934 349.958,390.934ZM348.962,393.768C350.756,393.768 350.895,395.692 350.323,397.564C349.615,399.878 348.185,401.412 346.625,401.412C344.935,401.412 344.525,399.774 345.193,397.59C345.765,395.718 347.09,393.768 348.962,393.768Z" style="fill:rgb(41,41,180);fill-rule:nonzero;"/>
                <path d="M357.195,391.246L357.936,403.96L361.888,403.96L370.507,391.246L366.347,391.246L362.904,397.148C362.284,398.24 361.782,399.202 361.256,400.242L361.178,400.242C361.28,399.228 361.374,398.24 361.396,397.148L361.485,391.246L357.195,391.246Z" style="fill:rgb(41,41,180);fill-rule:nonzero;"/>
                <path d="M368.44,403.96L372.392,403.96L374.633,396.628C374.744,396.264 374.882,395.9 375.065,395.64C375.574,394.912 376.454,394.158 377.546,394.158C378.976,394.158 379.206,395.276 378.706,396.914L376.551,403.96L380.503,403.96L382.801,396.446C383.945,392.702 382.528,390.96 379.928,390.96C377.796,390.96 376.148,392.182 375.374,393.014L375.296,393.014L375.655,391.246L372.223,391.246C371.925,392.39 371.571,393.716 371.087,395.302L368.44,403.96Z" style="fill:rgb(41,41,180);fill-rule:nonzero;"/>
                <path d="M387.628,403.96L391.515,391.246L387.563,391.246L383.676,403.96L387.628,403.96ZM391.804,385.708L388.359,389.66L391.063,389.66L395.444,385.708L391.804,385.708Z" style="fill:rgb(41,41,180);fill-rule:nonzero;"/>
                <path d="M408.931,396.446C409.853,393.43 409.29,390.934 405.052,390.934C402.738,390.934 400.797,391.584 399.762,392.078L399.711,394.626C400.702,394.106 402.215,393.664 403.515,393.664C405.465,393.664 405.535,394.626 405.321,395.328L405.273,395.484C400.775,395.484 397.334,397.044 396.324,400.346C395.704,402.374 396.666,404.246 399.24,404.246C400.748,404.246 402.215,403.7 403.357,402.686L403.435,402.686L403.28,403.96L406.842,403.96C406.9,403.258 407.206,402.088 407.571,400.892L408.931,396.446ZM404.226,399.332C404.155,399.566 404.057,399.8 403.942,400.008C403.435,400.814 402.405,401.464 401.443,401.464C400.559,401.464 400.034,400.97 400.344,399.956C400.805,398.448 402.568,397.954 404.648,397.954L404.226,399.332Z" style="fill:rgb(41,41,180);fill-rule:nonzero;"/>
                <path d="M424.544,395.042C425.124,393.144 425.502,392.078 425.809,391.246L422.377,391.246L421.778,392.78L421.726,392.78C421.401,391.714 420.54,390.96 418.798,390.96C415.652,390.96 412.231,393.56 410.975,397.668C409.862,401.308 411.319,403.856 414.465,403.856C415.921,403.856 417.326,403.258 418.398,402.218L418.45,402.218L418.204,403.024C417.48,405.39 415.748,406.378 413.876,406.378C412.368,406.378 411.141,405.884 410.478,405.416L408.776,408.432C409.729,409.056 411.368,409.394 413.058,409.394C414.93,409.394 416.939,409.03 418.683,407.834C420.529,406.56 421.635,404.558 422.382,402.114L424.544,395.042ZM419.598,398.292C419.495,398.63 419.342,399.046 419.142,399.358C418.604,400.268 417.592,400.944 416.552,400.944C414.914,400.944 414.431,399.462 415.011,397.564C415.718,395.25 417.26,393.95 418.716,393.95C419.808,393.95 420.347,394.652 420.315,395.692C420.296,395.926 420.242,396.186 420.171,396.42L419.598,398.292Z" style="fill:rgb(41,41,180);fill-rule:nonzero;"/>
                <path d="M437.78,398.864C437.919,398.578 438.18,397.98 438.386,397.304C439.348,394.158 438.766,390.96 434.658,390.96C430.238,390.96 427.147,394.522 426.161,397.746C424.945,401.724 426.652,404.22 430.968,404.22C432.684,404.22 434.35,403.96 435.816,403.414L436.115,400.736C434.938,401.1 433.79,401.282 432.438,401.282C430.592,401.282 429.193,400.502 429.59,398.864L437.78,398.864ZM430.39,396.16C430.812,395.12 431.957,393.586 433.621,393.586C435.441,393.586 435.364,395.198 435.07,396.16L430.39,396.16Z" style="fill:rgb(41,41,180);fill-rule:nonzero;"/>
                <path d="M438.718,403.96L442.67,403.96L444.911,396.628C445.022,396.264 445.16,395.9 445.343,395.64C445.852,394.912 446.732,394.158 447.824,394.158C449.254,394.158 449.484,395.276 448.984,396.914L446.83,403.96L450.782,403.96L453.079,396.446C454.223,392.702 452.806,390.96 450.206,390.96C448.074,390.96 446.426,392.182 445.652,393.014L445.574,393.014L445.933,391.246L442.501,391.246C442.203,392.39 441.849,393.716 441.365,395.302L438.718,403.96Z" style="fill:rgb(41,41,180);fill-rule:nonzero;"/>
                <path d="M458.954,388.88L458.231,391.246L456.541,391.246L455.65,394.158L457.34,394.158L455.75,399.358C455.202,401.152 455.192,402.374 455.69,403.128C456.141,403.778 457.072,404.22 458.346,404.22C459.438,404.22 460.448,404.064 460.997,403.882L461.885,400.892C461.498,400.97 461.23,400.996 460.684,400.996C459.514,400.996 459.338,400.294 459.807,398.76L461.214,394.158L464.048,394.158L464.939,391.246L462.105,391.246L463.154,387.814L458.954,388.88Z" style="fill:rgb(41,41,180);fill-rule:nonzero;"/>
                <path d="M479.213,391.246L475.261,391.246L472.947,398.812C472.844,399.15 472.705,399.436 472.529,399.67C472.104,400.294 471.224,401.048 470.132,401.048C468.728,401.048 468.472,399.93 469.036,398.084L471.127,391.246L467.175,391.246L464.893,398.708C463.693,402.634 465.072,404.246 467.672,404.246C469.96,404.246 471.554,402.946 472.286,402.166L472.364,402.166L471.997,403.96L475.429,403.96C475.703,402.894 476.065,401.542 476.573,399.878L479.213,391.246Z" style="fill:rgb(41,41,180);fill-rule:nonzero;"/>
                <path d="M478.498,403.96L482.45,403.96L484.421,397.512C484.516,397.2 484.638,396.888 484.769,396.628C485.403,395.406 486.629,394.626 488.085,394.626C488.527,394.626 488.823,394.678 489.119,394.73L490.256,391.012C489.986,390.96 489.812,390.934 489.448,390.934C488.2,390.934 486.427,391.714 485.205,393.586L485.101,393.586L485.661,391.246L482.281,391.246C482.025,392.338 481.677,393.56 481.105,395.432L478.498,403.96Z" style="fill:rgb(41,41,180);fill-rule:nonzero;"/>
                <path d="M500.971,396.446C501.893,393.43 501.33,390.934 497.092,390.934C494.778,390.934 492.837,391.584 491.802,392.078L491.751,394.626C492.742,394.106 494.255,393.664 495.555,393.664C497.505,393.664 497.575,394.626 497.361,395.328L497.313,395.484C492.815,395.484 489.374,397.044 488.364,400.346C487.744,402.374 488.706,404.246 491.28,404.246C492.788,404.246 494.255,403.7 495.397,402.686L495.475,402.686L495.32,403.96L498.881,403.96C498.94,403.258 499.246,402.088 499.611,400.892L500.971,396.446ZM496.266,399.332C496.195,399.566 496.097,399.8 495.982,400.008C495.475,400.814 494.445,401.464 493.483,401.464C492.599,401.464 492.074,400.97 492.384,399.956C492.845,398.448 494.608,397.954 496.688,397.954L496.266,399.332Z" style="fill:rgb(41,41,180);fill-rule:nonzero;"/>
            </g>
        </g>
    </g>
</svg>
